<svg width="72" height="72" viewBox="0 0 72 72" fill="none" xmlns="http://www.w3.org/2000/svg">
<rect width="72" height="72" rx="36" fill="#D9D9D9"/>
<path d="M36 35C39.6834 35 42.6667 32.0166 42.6667 28.3333C42.6667 24.65 39.6834 21.6666 36 21.6666C32.3167 21.6666 29.3334 24.65 29.3334 28.3333C29.3334 32.0166 32.3167 35 36 35ZM36 38.3333C31.55 38.3333 22.6667 40.5666 22.6667 45V46.6666C22.6667 47.5833 23.4167 48.3333 24.3334 48.3333H47.6667C48.5834 48.3333 49.3334 47.5833 49.3334 46.6666V45C49.3334 40.5666 40.45 38.3333 36 38.3333Z" fill="#006BD3"/>
</svg>
