<svg width="32" height="32" viewBox="0 0 32 32" fill="none" xmlns="http://www.w3.org/2000/svg">
<path d="M28.133 22.4668C27.7997 22.8001 27.405 22.9668 26.949 22.9668C26.493 22.9668 26.0988 22.8001 25.7663 22.4668L15.9997 12.7001L6.19967 22.5001C5.88856 22.8112 5.49967 22.9668 5.03301 22.9668C4.56634 22.9668 4.16634 22.8001 3.83301 22.4668C3.49967 22.1335 3.33301 21.7388 3.33301 21.2828C3.33301 20.8268 3.49967 20.4326 3.83301 20.1001L15.0663 8.90013C15.1997 8.7668 15.3441 8.67213 15.4997 8.61613C15.6552 8.56013 15.8219 8.53257 15.9997 8.53346C16.1775 8.53346 16.3441 8.56146 16.4997 8.61746C16.6552 8.67346 16.7997 8.76768 16.933 8.90013L28.1663 20.1335C28.4775 20.4446 28.633 20.8281 28.633 21.2841C28.633 21.7401 28.4663 22.1344 28.133 22.4668Z" fill="#1E1E1E"/>
</svg>
