<svg width="21" height="21" viewBox="0 0 21 21" fill="none" xmlns="http://www.w3.org/2000/svg">
<path d="M2 20C1.45 20 0.979 19.8043 0.587 19.413C0.195667 19.021 0 18.55 0 18V4C0 3.45 0.195667 2.97933 0.587 2.588C0.979 2.196 1.45 2 2 2H3V0H5V2H13V0H15V2H16C16.55 2 17.021 2.196 17.413 2.588C17.8043 2.97933 18 3.45 18 4V10H16V8H2V18H9V20H2ZM19.125 15L17 12.875L17.725 12.15C17.9083 11.9667 18.1417 11.875 18.425 11.875C18.7083 11.875 18.9417 11.9667 19.125 12.15L19.85 12.875C20.0333 13.0583 20.125 13.2917 20.125 13.575C20.125 13.8583 20.0333 14.0917 19.85 14.275L19.125 15ZM11 21V18.875L16.3 13.575L18.425 15.7L13.125 21H11Z" fill="#1E1E1E"/>
</svg>
