<svg width="33" height="32" viewBox="0 0 33 32" fill="none" xmlns="http://www.w3.org/2000/svg">
<path d="M15.4512 13.5333L14.2512 12.3667C13.9845 12.1222 13.6676 12.0053 13.3005 12.016C12.9343 12.0275 12.6289 12.1555 12.3845 12.4C12.1401 12.6444 12.0178 12.9555 12.0178 13.3333C12.0178 13.7111 12.1401 14.0222 12.3845 14.2667L15.8512 17.7333C16.0956 17.9778 16.4067 18.1 16.7845 18.1C17.1623 18.1 17.4734 17.9778 17.7178 17.7333L21.2178 14.2333C21.4623 13.9889 21.5792 13.6831 21.5685 13.316C21.557 12.9498 21.429 12.6444 21.1845 12.4C20.9401 12.1555 20.629 12.0275 20.2512 12.016C19.8734 12.0053 19.5623 12.1333 19.3178 12.4L18.1178 13.5333V9.29999C18.1178 8.92221 17.9903 8.6111 17.7352 8.36666C17.4792 8.12221 17.1623 7.99999 16.7845 7.99999C16.4067 7.99999 16.0903 8.12755 15.8352 8.38266C15.5792 8.63866 15.4512 8.95555 15.4512 9.33332V13.5333ZM11.4512 22.6667H22.1512C22.5289 22.6667 22.8401 22.5387 23.0845 22.2827C23.329 22.0275 23.4512 21.7111 23.4512 21.3333C23.4512 20.9555 23.3232 20.6387 23.0672 20.3827C22.8121 20.1275 22.4956 20 22.1178 20H11.4178C11.0401 20 10.729 20.1275 10.4845 20.3827C10.2401 20.6387 10.1178 20.9555 10.1178 21.3333C10.1178 21.7111 10.2454 22.0275 10.5005 22.2827C10.7565 22.5387 11.0734 22.6667 11.4512 22.6667ZM16.7845 29.3333C14.9401 29.3333 13.2067 28.9831 11.5845 28.2827C9.96228 27.5831 8.55117 26.6333 7.35117 25.4333C6.15117 24.2333 5.20139 22.8222 4.50184 21.2C3.80139 19.5778 3.45117 17.8444 3.45117 16C3.45117 14.1555 3.80139 12.4222 4.50184 10.8C5.20139 9.17777 6.15117 7.76666 7.35117 6.56666C8.55117 5.36666 9.96228 4.41643 11.5845 3.71599C13.2067 3.01643 14.9401 2.66666 16.7845 2.66666C18.629 2.66666 20.3623 3.01643 21.9845 3.71599C23.6067 4.41643 25.0178 5.36666 26.2178 6.56666C27.4178 7.76666 28.3676 9.17777 29.0672 10.8C29.7676 12.4222 30.1178 14.1555 30.1178 16C30.1178 17.8444 29.7676 19.5778 29.0672 21.2C28.3676 22.8222 27.4178 24.2333 26.2178 25.4333C25.0178 26.6333 23.6067 27.5831 21.9845 28.2827C20.3623 28.9831 18.629 29.3333 16.7845 29.3333Z" fill="#004F9C"/>
</svg>
