<svg width="14" height="14" viewBox="0 0 14 14" fill="none" xmlns="http://www.w3.org/2000/svg">
<path d="M13.092 6.16722V12.124C13.092 12.3974 12.9833 12.6596 12.79 12.853C12.5967 13.0463 12.3345 13.1549 12.061 13.1549H9.48374C9.21033 13.1549 8.94811 13.0463 8.75477 12.853C8.56144 12.6596 8.45283 12.3974 8.45283 12.124V9.54669C8.45283 9.40998 8.39852 9.27887 8.30185 9.18221C8.20518 9.08554 8.07408 9.03123 7.93737 9.03123H5.87553C5.73882 9.03123 5.60772 9.08554 5.51105 9.18221C5.41438 9.27887 5.36007 9.40998 5.36007 9.54669V12.124C5.36007 12.3974 5.25146 12.6596 5.05813 12.853C4.86479 13.0463 4.60257 13.1549 4.32916 13.1549H1.75186C1.47845 13.1549 1.21623 13.0463 1.0229 12.853C0.829561 12.6596 0.720947 12.3974 0.720947 12.124V6.16722C0.720926 6.02454 0.750521 5.88341 0.807861 5.75275C0.865201 5.6221 0.949036 5.50478 1.05406 5.4082L6.20865 0.54485L6.21574 0.537763C6.40552 0.36517 6.65283 0.269531 6.90935 0.269531C7.16587 0.269531 7.41318 0.36517 7.60296 0.537763C7.60516 0.540284 7.60753 0.542652 7.61005 0.54485L12.7646 5.4082C12.8686 5.50529 12.9514 5.62284 13.0077 5.75347C13.064 5.88409 13.0927 6.02496 13.092 6.16722Z" fill="#006BD3"/>
</svg>
