<svg width="14" height="13" viewBox="0 0 14 13" fill="none" xmlns="http://www.w3.org/2000/svg">
<path fill-rule="evenodd" clip-rule="evenodd" d="M10.6865 0.265625C10.8999 0.265625 11.1104 0.315308 11.3012 0.410741C11.4921 0.506173 11.6581 0.644733 11.7862 0.815447L13.6336 3.27865C13.7263 3.40014 13.7756 3.54919 13.7738 3.70202H13.7793V4.38929C13.7799 5.05906 13.5355 5.70592 13.092 6.20783V11.2621C13.092 11.6266 12.9472 11.9763 12.6894 12.234C12.4316 12.4918 12.082 12.6366 11.7174 12.6366H2.09553C1.73097 12.6366 1.38135 12.4918 1.12357 12.234C0.865791 11.9763 0.720973 11.6266 0.720973 11.2621V6.20783C0.277208 5.70609 0.0326995 5.05912 0.0336944 4.38929V3.70202H0.0391926C0.0373046 3.54919 0.0866657 3.40014 0.179397 3.27865L2.0268 0.815447C2.15484 0.644733 2.32086 0.506173 2.51173 0.410741C2.70259 0.315308 2.91305 0.265625 3.12645 0.265625H10.6865ZM12.4047 4.38929H9.65559C9.65399 4.74598 9.79111 5.08932 10.038 5.34678C10.2848 5.60424 10.6221 5.75565 10.9786 5.76903C11.335 5.78242 11.6827 5.65672 11.9482 5.4185C12.2136 5.18028 12.3761 4.84819 12.4013 4.49239L12.4047 4.38929ZM8.28103 4.38929H5.53192C5.53032 4.74598 5.66744 5.08932 5.91431 5.34678C6.16117 5.60424 6.49845 5.75565 6.85489 5.76903C7.21133 5.78242 7.55901 5.65672 7.82449 5.4185C8.08996 5.18028 8.25244 4.84819 8.2776 4.49239L8.28103 4.38929ZM4.15736 4.38929H1.40825C1.40665 4.74598 1.54377 5.08932 1.79064 5.34678C2.0375 5.60424 2.37478 5.75565 2.73122 5.76903C3.08766 5.78242 3.43534 5.65672 3.70082 5.4185C3.96629 5.18028 4.12877 4.84819 4.15393 4.49239L4.15736 4.38929Z" fill="#006BD3"/>
</svg>
