<svg width="24" height="25" viewBox="0 0 24 25" fill="none" xmlns="http://www.w3.org/2000/svg">
<path d="M10.2857 0.544922C8.4 0.544922 6.85714 1.89492 6.85714 3.54492H3.42857C1.54286 3.54492 0 4.89492 0 6.54492H24C24 4.89492 22.4571 3.54492 20.5714 3.54492H17.1429C17.1429 1.89492 15.6 0.544922 13.7143 0.544922H10.2857ZM3.42857 9.54492V23.9749C3.42857 24.3049 3.70286 24.5449 4.08 24.5449H19.9543C20.3314 24.5449 20.6057 24.3049 20.6057 23.9749V9.54492H17.1771V20.0449C17.1771 20.8849 16.4229 21.5449 15.4629 21.5449C14.5029 21.5449 13.7486 20.8849 13.7486 20.0449V9.54492H10.32V20.0449C10.32 20.8849 9.56571 21.5449 8.60571 21.5449C7.64571 21.5449 6.89143 20.8849 6.89143 20.0449V9.54492H3.46286H3.42857Z" fill="#FCFCFC"/>
</svg>
