<svg width="128" height="128" viewBox="0 0 128 128" fill="none" xmlns="http://www.w3.org/2000/svg">
<path d="M64.0013 10.6666C53.453 10.6666 43.1415 13.7946 34.3709 19.6549C25.6003 25.5153 18.7644 33.8448 14.7278 43.5902C10.6911 53.3356 9.6349 64.0591 11.6928 74.4048C13.7507 84.7504 18.8302 94.2535 26.289 101.712C33.7478 109.171 43.2509 114.251 53.5965 116.308C63.9422 118.366 74.6657 117.31 84.4111 113.274C94.1565 109.237 102.486 102.401 108.346 93.6304C114.207 84.8597 117.335 74.5483 117.335 64C117.321 49.8592 111.698 36.3016 101.699 26.3026C91.6997 16.3036 78.142 10.6802 64.0013 10.6666ZM64.0013 109.128C55.0758 109.128 46.3507 106.481 38.9294 101.523C31.5081 96.5639 25.7239 89.5159 22.3083 81.2698C18.8927 73.0237 17.999 63.9499 19.7402 55.1959C21.4815 46.4419 25.7796 38.4008 32.0909 32.0895C38.4022 25.7782 46.4432 21.4802 55.1972 19.7389C63.9513 17.9976 73.025 18.8913 81.2711 22.3069C89.5172 25.7226 96.5653 31.5068 101.524 38.9281C106.483 46.3494 109.13 55.0744 109.13 64C109.116 75.9645 104.357 87.4352 95.8968 95.8954C87.4365 104.356 75.9659 109.115 64.0013 109.128ZM59.8988 68.1025V39.3846C59.8988 38.2965 60.331 37.253 61.1004 36.4836C61.8697 35.7142 62.9132 35.282 64.0013 35.282C65.0894 35.282 66.1329 35.7142 66.9023 36.4836C67.6716 37.253 68.1039 38.2965 68.1039 39.3846V68.1025C68.1039 69.1906 67.6716 70.2341 66.9023 71.0035C66.1329 71.7728 65.0894 72.2051 64.0013 72.2051C62.9132 72.2051 61.8697 71.7728 61.1004 71.0035C60.331 70.2341 59.8988 69.1906 59.8988 68.1025ZM70.1552 86.564C70.1552 87.7812 69.7942 88.9709 69.118 89.9829C68.4419 90.9949 67.4808 91.7837 66.3563 92.2495C65.2318 92.7152 63.9945 92.8371 62.8008 92.5996C61.607 92.3622 60.5105 91.7761 59.6499 90.9155C58.7893 90.0548 58.2032 88.9583 57.9657 87.7646C57.7283 86.5709 57.8501 85.3335 58.3159 84.2091C58.7817 83.0846 59.5704 82.1235 60.5824 81.4473C61.5944 80.7711 62.7842 80.4102 64.0013 80.4102C65.6334 80.4102 67.1987 81.0586 68.3527 82.2126C69.5068 83.3667 70.1552 84.9319 70.1552 86.564Z" fill="#A7A5A5"/>
</svg>
